<svg xmlns="http://www.w3.org/2000/svg" width="375" height="812" viewBox="0 0 375 812">
  <defs>
    <radialGradient id="dotGlow2" cx="50%" cy="50%" r="50%">
      <stop offset="0%" stop-color="#22d3ee" stop-opacity="0.6"/>
      <stop offset="100%" stop-color="#22d3ee" stop-opacity="0"/>
    </radialGradient>
  </defs>

  <!-- Phone frame -->
  <rect width="375" height="812" rx="40" fill="#0a0f1e"/>

  <!-- Status bar -->
  <text x="30" y="26" font-family="SF Pro, sans-serif" font-size="14" fill="#94a3b8" font-weight="600">9:41</text>

  <!-- Header -->
  <text x="24" y="68" font-family="Georgia, serif" font-size="22" fill="#f1f5f9">cart<tspan fill="#22d3ee">log</tspan></text>
  <circle cx="351" cy="62" r="12" fill="url(#dotGlow2)"/>
  <circle cx="351" cy="62" r="4" fill="#22d3ee"/>

  <!-- History title row -->
  <text x="24" y="108" font-family="Georgia, serif" font-size="24" fill="#f1f5f9" font-weight="700">History</text>

  <!-- Export button -->
  <rect x="228" y="90" width="68" height="30" rx="10" fill="#1e293b" stroke="#334155" stroke-width="1"/>
  <text x="262" y="110" text-anchor="middle" font-family="sans-serif" font-size="13" fill="#94a3b8">Export</text>

  <!-- Sort dropdown -->
  <rect x="304" y="90" width="50" height="30" rx="10" fill="#1e293b" stroke="#334155" stroke-width="1"/>
  <text x="329" y="110" text-anchor="middle" font-family="sans-serif" font-size="11" fill="#94a3b8">▾</text>

  <!-- Month label: MARCH 2026 -->
  <text x="28" y="152" font-family="sans-serif" font-size="11" fill="#475569" font-weight="700" letter-spacing="1.2">MARCH 2026</text>

  <!-- Receipt Card 1: H-E-B -->
  <rect x="20" y="164" width="335" height="62" rx="16" fill="#1e293b" stroke="#334155" stroke-width="1"/>
  <text x="36" y="191" font-family="sans-serif" font-size="16" fill="#f1f5f9" font-weight="600">H-E-B</text>
  <text x="36" y="210" font-family="sans-serif" font-size="13" fill="#64748b">03/15/26</text>
  <text x="308" y="195" text-anchor="end" font-family="sans-serif" font-size="18" fill="#22d3ee" font-weight="700">$87.42</text>
  <!-- Trash icon placeholder -->
  <g transform="translate(320,183)" stroke="#334155" stroke-width="1.5" fill="none">
    <polyline points="1 3 2.5 3 12 3"/>
    <path d="M11 3l-0.5 8a1 1 0 0 1-1 1H3.5a1 1 0 0 1-1-1L2 3"/>
    <path d="M5 6v3M8 6v3"/>
    <path d="M4.5 3V2a0.5 0.5 0 0 1 0.5-0.5h3a0.5 0.5 0 0 1 0.5 0.5v1"/>
  </g>

  <!-- Receipt Card 2: Trader Joe's -->
  <rect x="20" y="236" width="335" height="62" rx="16" fill="#1e293b" stroke="#334155" stroke-width="1"/>
  <text x="36" y="263" font-family="sans-serif" font-size="16" fill="#f1f5f9" font-weight="600">Trader Joe's</text>
  <text x="36" y="282" font-family="sans-serif" font-size="13" fill="#64748b">03/12/26</text>
  <text x="308" y="267" text-anchor="end" font-family="sans-serif" font-size="18" fill="#22d3ee" font-weight="700">$54.18</text>
  <g transform="translate(320,255)" stroke="#334155" stroke-width="1.5" fill="none">
    <polyline points="1 3 2.5 3 12 3"/>
    <path d="M11 3l-0.5 8a1 1 0 0 1-1 1H3.5a1 1 0 0 1-1-1L2 3"/>
    <path d="M5 6v3M8 6v3"/>
  </g>

  <!-- Receipt Card 3: Target -->
  <rect x="20" y="308" width="335" height="62" rx="16" fill="#1e293b" stroke="#334155" stroke-width="1"/>
  <text x="36" y="335" font-family="sans-serif" font-size="16" fill="#f1f5f9" font-weight="600">Target</text>
  <text x="36" y="354" font-family="sans-serif" font-size="13" fill="#64748b">03/08/26</text>
  <text x="308" y="339" text-anchor="end" font-family="sans-serif" font-size="18" fill="#22d3ee" font-weight="700">$32.97</text>
  <g transform="translate(320,327)" stroke="#334155" stroke-width="1.5" fill="none">
    <polyline points="1 3 2.5 3 12 3"/>
    <path d="M11 3l-0.5 8a1 1 0 0 1-1 1H3.5a1 1 0 0 1-1-1L2 3"/>
    <path d="M5 6v3M8 6v3"/>
  </g>

  <!-- Receipt Card 4: Whole Foods -->
  <rect x="20" y="380" width="335" height="62" rx="16" fill="#1e293b" stroke="#334155" stroke-width="1"/>
  <text x="36" y="407" font-family="sans-serif" font-size="16" fill="#f1f5f9" font-weight="600">Whole Foods</text>
  <text x="36" y="426" font-family="sans-serif" font-size="13" fill="#64748b">03/05/26</text>
  <text x="308" y="411" text-anchor="end" font-family="sans-serif" font-size="18" fill="#22d3ee" font-weight="700">$112.30</text>
  <g transform="translate(320,399)" stroke="#334155" stroke-width="1.5" fill="none">
    <polyline points="1 3 2.5 3 12 3"/>
    <path d="M11 3l-0.5 8a1 1 0 0 1-1 1H3.5a1 1 0 0 1-1-1L2 3"/>
    <path d="M5 6v3M8 6v3"/>
  </g>

  <!-- Month label: FEBRUARY 2026 -->
  <text x="28" y="476" font-family="sans-serif" font-size="11" fill="#475569" font-weight="700" letter-spacing="1.2">FEBRUARY 2026</text>

  <!-- Receipt Card 5: H-E-B -->
  <rect x="20" y="488" width="335" height="62" rx="16" fill="#1e293b" stroke="#334155" stroke-width="1"/>
  <text x="36" y="515" font-family="sans-serif" font-size="16" fill="#f1f5f9" font-weight="600">H-E-B</text>
  <text x="36" y="534" font-family="sans-serif" font-size="13" fill="#64748b">02/28/26</text>
  <text x="308" y="519" text-anchor="end" font-family="sans-serif" font-size="18" fill="#22d3ee" font-weight="700">$63.55</text>
  <g transform="translate(320,507)" stroke="#334155" stroke-width="1.5" fill="none">
    <polyline points="1 3 2.5 3 12 3"/>
    <path d="M11 3l-0.5 8a1 1 0 0 1-1 1H3.5a1 1 0 0 1-1-1L2 3"/>
    <path d="M5 6v3M8 6v3"/>
  </g>

  <!-- Receipt Card 6: Costco -->
  <rect x="20" y="560" width="335" height="62" rx="16" fill="#1e293b" stroke="#334155" stroke-width="1"/>
  <text x="36" y="587" font-family="sans-serif" font-size="16" fill="#f1f5f9" font-weight="600">Costco</text>
  <text x="36" y="606" font-family="sans-serif" font-size="13" fill="#64748b">02/20/26</text>
  <text x="308" y="591" text-anchor="end" font-family="sans-serif" font-size="18" fill="#22d3ee" font-weight="700">$156.82</text>
  <g transform="translate(320,579)" stroke="#334155" stroke-width="1.5" fill="none">
    <polyline points="1 3 2.5 3 12 3"/>
    <path d="M11 3l-0.5 8a1 1 0 0 1-1 1H3.5a1 1 0 0 1-1-1L2 3"/>
    <path d="M5 6v3M8 6v3"/>
  </g>

  <!-- ========== BOTTOM TAB BAR ========== -->
  <rect x="0" y="730" width="375" height="82" fill="#0f172a"/>
  <line x1="0" y1="730" x2="375" y2="730" stroke="#1e293b" stroke-width="1"/>

  <!-- History tab (active) -->
  <g transform="translate(65,750)">
    <circle cx="12" cy="11" r="9" fill="none" stroke="#22d3ee" stroke-width="1.8"/>
    <polyline points="12,6 12,11 15,13" fill="none" stroke="#22d3ee" stroke-width="1.8"/>
    <text x="12" y="32" text-anchor="middle" font-family="sans-serif" font-size="10" fill="#22d3ee" font-weight="700">History</text>
  </g>

  <!-- Scan tab -->
  <g transform="translate(176,744)">
    <g stroke="#64748b" stroke-width="2" fill="none">
      <path d="M3 7V5a2 2 0 0 1 2-2h2"/>
      <path d="M17 3h2a2 2 0 0 1 2 2v2"/>
      <path d="M21 17v2a2 2 0 0 1-2 2h-2"/>
      <path d="M7 21H5a2 2 0 0 1-2-2v-2"/>
      <line x1="3" y1="12" x2="21" y2="12"/>
    </g>
    <text x="12" y="38" text-anchor="middle" font-family="sans-serif" font-size="10" fill="#64748b">Scan</text>
  </g>

  <!-- Budget tab -->
  <g transform="translate(285,750)">
    <g stroke="#64748b" stroke-width="1.8" fill="none">
      <line x1="18" y1="20" x2="18" y2="10"/>
      <line x1="12" y1="20" x2="12" y2="4"/>
      <line x1="6" y1="20" x2="6" y2="14"/>
      <line x1="2" y1="20" x2="22" y2="20"/>
    </g>
    <text x="12" y="32" text-anchor="middle" font-family="sans-serif" font-size="10" fill="#64748b">Budget</text>
  </g>
</svg>